<svg width="200" height="77" viewBox="0 0 200 77" fill="none" xmlns="http://www.w3.org/2000/svg"><g clip-path="url(#clip0_772_55525)"><path d="M88.1782 71.7464V65.3108H89.4568V68.1704L92.0403 65.3108H93.7607L91.3761 67.8167L93.8923 71.7464H92.2363L90.4955 68.7263L89.4597 69.8024V71.7464H88.1812H88.1782Z" fill="#009247"/><path d="M97.2015 70.2633L98.4127 70.4684C98.2577 70.9202 98.0119 71.2621 97.6754 71.4969C97.339 71.7317 96.9206 71.8506 96.4173 71.8506C95.6186 71.8506 95.0276 71.5861 94.6443 71.057C94.3429 70.6319 94.1908 70.0968 94.1908 69.4488C94.1908 68.6759 94.3898 68.0695 94.7877 67.6325C95.1856 67.1956 95.6888 66.9756 96.2945 66.9756C96.9762 66.9756 97.5145 67.2045 97.9095 67.6623C98.3045 68.12 98.4917 68.8216 98.4742 69.7668H95.4313C95.4401 70.1325 95.5367 70.4178 95.7239 70.62C95.9112 70.8221 96.1452 70.9262 96.4232 70.9262C96.6134 70.9262 96.7743 70.8727 96.903 70.7686C97.0318 70.6646 97.1312 70.4951 97.1956 70.2603L97.2015 70.2633ZM97.2717 69.0148C97.2629 68.6581 97.1722 68.3876 96.9996 68.2003C96.827 68.013 96.6163 67.9209 96.3676 67.9209C96.1014 67.9209 95.8848 68.019 95.7093 68.2152C95.5367 68.4113 95.4518 68.6789 95.4548 69.0148H97.2688H97.2717Z" fill="#009247"/><path d="M102.123 70.2633L103.334 70.4684C103.179 70.9202 102.933 71.2621 102.597 71.4969C102.26 71.7317 101.842 71.8506 101.336 71.8506C100.537 71.8506 99.9458 71.5861 99.5625 71.057C99.2612 70.6319 99.109 70.0968 99.109 69.4488C99.109 68.6759 99.308 68.0695 99.7059 67.6325C100.104 67.1956 100.607 66.9756 101.216 66.9756C101.897 66.9756 102.436 67.2045 102.831 67.6623C103.226 68.12 103.413 68.8216 103.395 69.7668H100.352C100.361 70.1325 100.458 70.4178 100.645 70.62C100.832 70.8221 101.066 70.9262 101.344 70.9262C101.535 70.9262 101.695 70.8727 101.824 70.7686C101.953 70.6646 102.052 70.4951 102.117 70.2603L102.123 70.2633ZM102.193 69.0148C102.184 68.6581 102.093 68.3876 101.921 68.2003C101.748 68.013 101.537 67.9209 101.289 67.9209C101.022 67.9209 100.806 68.019 100.63 68.2152C100.458 68.4113 100.373 68.6789 100.376 69.0148H102.19H102.193Z" fill="#009247"/><path d="M104.355 67.0855H105.487V67.7692C105.634 67.5344 105.833 67.3441 106.084 67.1985C106.336 67.0528 106.614 66.9785 106.918 66.9785C107.451 66.9785 107.904 67.1896 108.276 67.6146C108.647 68.0397 108.835 68.6313 108.835 69.3893C108.835 70.1473 108.647 70.7745 108.273 71.2055C107.898 71.6366 107.445 71.8536 106.912 71.8536C106.658 71.8536 106.429 71.803 106.222 71.699C106.017 71.5979 105.798 71.4196 105.572 71.1728V73.5212H104.358V67.0855H104.355ZM105.558 69.3387C105.558 69.8619 105.66 70.2513 105.865 70.501C106.07 70.7507 106.318 70.8756 106.614 70.8756C106.909 70.8756 107.132 70.7597 107.319 70.5308C107.506 70.3019 107.6 69.9244 107.6 69.4012C107.6 68.9137 107.503 68.548 107.31 68.3132C107.117 68.0784 106.877 67.9565 106.593 67.9565C106.31 67.9565 106.049 68.0724 105.853 68.3043C105.657 68.5362 105.561 68.881 105.561 69.3387H105.558Z" fill="#009247"/><path d="M111.974 69.3506C111.974 68.9404 112.073 68.545 112.272 68.1616C112.471 67.7781 112.752 67.4868 113.118 67.2847C113.484 67.0825 113.89 66.9814 114.338 66.9814C115.031 66.9814 115.602 67.2103 116.044 67.6681C116.488 68.1259 116.708 68.7055 116.708 69.4041C116.708 70.1027 116.483 70.6942 116.035 71.1579C115.587 71.6217 115.023 71.8535 114.344 71.8535C113.922 71.8535 113.522 71.7554 113.141 71.5652C112.761 71.372 112.468 71.0896 112.269 70.715C112.07 70.3405 111.971 69.8886 111.971 69.3506H111.974ZM113.217 69.416C113.217 69.8797 113.326 70.2335 113.542 70.4772C113.759 70.721 114.025 70.8458 114.341 70.8458C114.657 70.8458 114.923 70.7239 115.137 70.4772C115.35 70.2305 115.459 69.8738 115.459 69.4071C115.459 68.9404 115.35 68.5985 115.137 68.3548C114.923 68.1081 114.657 67.9862 114.341 67.9862C114.025 67.9862 113.759 68.1081 113.542 68.3548C113.326 68.6015 113.217 68.9552 113.217 69.419V69.416Z" fill="#009247"/><path d="M120.681 71.7465V71.048C120.514 71.2977 120.295 71.4938 120.023 71.6365C119.751 71.7792 119.464 71.8506 119.16 71.8506C118.855 71.8506 118.575 71.7822 118.329 71.6454C118.083 71.5087 117.907 71.3155 117.796 71.0658C117.685 70.8161 117.632 70.4742 117.632 70.0343V67.0825H118.847V69.2258C118.847 69.8827 118.87 70.284 118.914 70.4297C118.958 70.5783 119.04 70.6942 119.157 70.7804C119.274 70.8666 119.426 70.9112 119.607 70.9112C119.815 70.9112 119.999 70.8547 120.163 70.7388C120.327 70.6229 120.441 70.4802 120.5 70.3078C120.561 70.1354 120.59 69.7162 120.59 69.0504V67.0825H121.805V71.7465H120.675H120.681Z" fill="#009247"/><path d="M124.23 71.7466H123.016V67.0826H124.145V67.7454C124.338 67.4333 124.511 67.2252 124.666 67.1271C124.821 67.029 124.994 66.9785 125.19 66.9785C125.468 66.9785 125.734 67.0558 125.988 67.2104L125.611 68.2865C125.406 68.1527 125.216 68.0843 125.041 68.0843C124.865 68.0843 124.727 68.1319 124.608 68.227C124.49 68.3221 124.397 68.4945 124.33 68.7442C124.262 68.9939 124.227 69.5141 124.227 70.3078V71.7466H124.23Z" fill="#009247"/><path d="M130.131 71.7466H128.917V67.0826H130.047V67.7454C130.24 67.4333 130.412 67.2252 130.567 67.1271C130.722 67.029 130.895 66.9785 131.091 66.9785C131.369 66.9785 131.635 67.0558 131.89 67.2104L131.512 68.2865C131.308 68.1527 131.117 68.0843 130.942 68.0843C130.766 68.0843 130.629 68.1319 130.509 68.227C130.392 68.3221 130.298 68.4945 130.231 68.7442C130.164 68.9939 130.129 69.5141 130.129 70.3078V71.7466H130.131Z" fill="#009247"/><path d="M132.133 69.3506C132.133 68.9404 132.232 68.545 132.431 68.1616C132.63 67.7781 132.911 67.4868 133.277 67.2847C133.643 67.0825 134.049 66.9814 134.497 66.9814C135.19 66.9814 135.761 67.2103 136.203 67.6681C136.647 68.1259 136.867 68.7055 136.867 69.4041C136.867 70.1027 136.641 70.6942 136.194 71.1579C135.746 71.6217 135.182 71.8535 134.503 71.8535C134.081 71.8535 133.681 71.7554 133.3 71.5652C132.92 71.372 132.627 71.0896 132.428 70.715C132.229 70.3405 132.13 69.8886 132.13 69.3506H132.133ZM133.376 69.416C133.376 69.8797 133.485 70.2335 133.701 70.4772C133.918 70.721 134.184 70.8458 134.5 70.8458C134.816 70.8458 135.082 70.7239 135.296 70.4772C135.509 70.2305 135.617 69.8738 135.617 69.4071C135.617 68.9404 135.509 68.5985 135.296 68.3548C135.082 68.1081 134.816 67.9862 134.5 67.9862C134.184 67.9862 133.918 68.1081 133.701 68.3548C133.485 68.6015 133.376 68.9552 133.376 69.419V69.416Z" fill="#009247"/><path d="M138.727 68.5064L137.624 68.3043C137.747 67.8525 137.961 67.5195 138.265 67.3025C138.567 67.0855 139.017 66.9785 139.614 66.9785C140.155 66.9785 140.559 67.0439 140.825 67.1747C141.092 67.3055 141.276 67.472 141.384 67.6711C141.492 67.8703 141.545 68.2389 141.545 68.774L141.533 70.2127C141.533 70.6229 141.554 70.9261 141.592 71.1193C141.63 71.3126 141.703 71.5236 141.811 71.7436H140.609C140.577 71.6603 140.539 71.5414 140.492 71.3779C140.471 71.3036 140.457 71.2561 140.448 71.2323C140.24 71.4374 140.018 71.592 139.781 71.693C139.544 71.7941 139.292 71.8476 139.026 71.8476C138.552 71.8476 138.18 71.7168 137.908 71.4582C137.636 71.1996 137.499 70.8696 137.499 70.4713C137.499 70.2067 137.56 69.9719 137.686 69.7668C137.812 69.5617 137.984 69.4012 138.207 69.2942C138.429 69.1842 138.751 69.0891 139.172 69.0058C139.74 68.8988 140.132 68.7977 140.351 68.7026V68.5807C140.351 68.3429 140.293 68.1735 140.179 68.0724C140.065 67.9714 139.845 67.9208 139.526 67.9208C139.31 67.9208 139.143 67.9654 139.02 68.0516C138.9 68.1378 138.801 68.2894 138.727 68.5064ZM140.351 69.5082C140.196 69.5617 139.95 69.6241 139.611 69.6984C139.275 69.7727 139.055 69.8441 138.95 69.9125C138.792 70.0254 138.713 70.1711 138.713 70.3465C138.713 70.5218 138.777 70.6675 138.903 70.7953C139.029 70.9231 139.19 70.9826 139.386 70.9826C139.605 70.9826 139.813 70.9083 140.012 70.7626C140.158 70.6526 140.255 70.5159 140.302 70.3554C140.334 70.2513 140.348 70.0492 140.348 69.7549V69.5082H140.351Z" fill="#009247"/><path d="M146.952 71.7464H145.826V71.0628C145.638 71.3303 145.416 71.5265 145.161 71.6573C144.907 71.7881 144.649 71.8535 144.389 71.8535C143.862 71.8535 143.409 71.6365 143.034 71.2054C142.657 70.7744 142.47 70.171 142.47 69.3981C142.47 68.6252 142.651 68.0069 143.02 67.5967C143.385 67.1865 143.848 66.9784 144.406 66.9784C144.919 66.9784 145.363 67.1954 145.738 67.6294V65.3108H146.952V71.7464ZM143.71 69.3149C143.71 69.8113 143.777 70.171 143.912 70.3939C144.108 70.715 144.383 70.8755 144.734 70.8755C145.015 70.8755 145.252 70.7536 145.448 70.5128C145.644 70.272 145.741 69.9094 145.741 69.4308C145.741 68.8957 145.647 68.5093 145.457 68.2745C145.267 68.0396 145.024 67.9207 144.725 67.9207C144.427 67.9207 144.196 68.0367 144.003 68.2685C143.81 68.5004 143.71 68.8482 143.71 69.3119V69.3149Z" fill="#009247"/><path d="M147.721 70.4178L148.939 70.2305C148.991 70.4713 149.097 70.6526 149.255 70.7774C149.413 70.9023 149.635 70.9647 149.919 70.9647C150.232 70.9647 150.469 70.9053 150.627 70.7893C150.735 70.7061 150.788 70.5961 150.788 70.4594C150.788 70.3672 150.758 70.287 150.703 70.2275C150.641 70.1681 150.507 70.1146 150.296 70.064C149.316 69.844 148.696 69.6449 148.432 69.4636C148.07 69.2109 147.888 68.8631 147.888 68.4142C147.888 68.01 148.046 67.6711 148.359 67.3946C148.672 67.1182 149.161 66.9814 149.819 66.9814C150.478 66.9814 150.913 67.0855 151.221 67.2936C151.525 67.5016 151.736 67.8078 151.853 68.2151L150.709 68.4291C150.659 68.2478 150.565 68.1081 150.431 68.0129C150.293 67.9148 150.097 67.8673 149.846 67.8673C149.527 67.8673 149.296 67.9119 149.158 68.004C149.064 68.0694 149.02 68.1526 149.02 68.2537C149.02 68.3429 149.061 68.4172 149.14 68.4767C149.252 68.5599 149.629 68.6728 150.276 68.8245C150.922 68.9731 151.373 69.1574 151.63 69.3744C151.885 69.5944 152.011 69.9005 152.011 70.2929C152.011 70.721 151.835 71.0866 151.484 71.3957C151.133 71.7049 150.612 71.8565 149.925 71.8565C149.298 71.8565 148.804 71.7287 148.441 71.4701C148.075 71.2114 147.838 70.8636 147.727 70.4207L147.721 70.4178Z" fill="#009247"/><path d="M155.103 70.4178L156.323 70.2305C156.376 70.4713 156.481 70.6526 156.639 70.7774C156.797 70.9023 157.02 70.9647 157.306 70.9647C157.619 70.9647 157.856 70.9053 158.014 70.7893C158.12 70.7061 158.175 70.5961 158.175 70.4594C158.175 70.3672 158.146 70.287 158.088 70.2275C158.026 70.1681 157.892 70.1146 157.681 70.064C156.701 69.844 156.08 69.6449 155.817 69.4636C155.454 69.2109 155.273 68.8631 155.273 68.4142C155.273 68.01 155.431 67.6711 155.744 67.3946C156.057 67.1182 156.546 66.9814 157.204 66.9814C157.862 66.9814 158.298 67.0855 158.605 67.2936C158.91 67.5016 159.12 67.8078 159.237 68.2151L158.093 68.4291C158.044 68.2478 157.953 68.1081 157.816 68.0129C157.678 67.9148 157.482 67.8673 157.23 67.8673C156.911 67.8673 156.68 67.9119 156.543 68.004C156.452 68.0694 156.405 68.1526 156.405 68.2537C156.405 68.3429 156.446 68.4172 156.525 68.4767C156.633 68.5599 157.014 68.6728 157.66 68.8245C158.307 68.9731 158.758 69.1574 159.015 69.3744C159.27 69.5944 159.395 69.9005 159.395 70.2929C159.395 70.721 159.22 71.0866 158.869 71.3957C158.518 71.7049 157.997 71.8565 157.309 71.8565C156.683 71.8565 156.189 71.7287 155.826 71.4701C155.463 71.2114 155.223 70.8636 155.112 70.4207L155.103 70.4178Z" fill="#009247"/><path d="M161.359 68.5064L160.256 68.3043C160.379 67.8525 160.592 67.5195 160.896 67.3025C161.198 67.0855 161.648 66.9785 162.245 66.9785C162.787 66.9785 163.19 67.0439 163.457 67.1747C163.723 67.3055 163.907 67.472 164.015 67.6711C164.124 67.8703 164.176 68.2389 164.176 68.774L164.165 70.2127C164.165 70.6229 164.185 70.9261 164.223 71.1193C164.261 71.3126 164.334 71.5236 164.443 71.7436H163.24C163.208 71.6603 163.17 71.5414 163.123 71.3779C163.103 71.3036 163.088 71.2561 163.079 71.2323C162.871 71.4374 162.649 71.592 162.412 71.693C162.175 71.7941 161.923 71.8476 161.657 71.8476C161.186 71.8476 160.812 71.7168 160.54 71.4582C160.267 71.1966 160.13 70.8696 160.13 70.4713C160.13 70.2067 160.191 69.9719 160.314 69.7668C160.437 69.5617 160.613 69.4012 160.835 69.2942C161.057 69.1871 161.379 69.0891 161.801 69.0058C162.368 68.8988 162.76 68.7977 162.98 68.7026V68.5807C162.98 68.3429 162.921 68.1735 162.807 68.0724C162.693 67.9714 162.473 67.9208 162.155 67.9208C161.938 67.9208 161.771 67.9654 161.648 68.0516C161.528 68.1378 161.429 68.2894 161.356 68.5064H161.359ZM162.983 69.5082C162.827 69.5617 162.582 69.6241 162.242 69.6984C161.903 69.7727 161.683 69.8441 161.581 69.9125C161.423 70.0254 161.344 70.1711 161.344 70.3465C161.344 70.5218 161.408 70.6675 161.534 70.7953C161.66 70.9231 161.821 70.9826 162.017 70.9826C162.236 70.9826 162.444 70.9083 162.643 70.7626C162.789 70.6526 162.886 70.5159 162.933 70.3554C162.965 70.2513 162.98 70.0492 162.98 69.7549V69.5082H162.983Z" fill="#009247"/><path d="M164.843 67.0855H165.516V66.7347C165.516 66.3424 165.557 66.051 165.639 65.8578C165.721 65.6646 165.873 65.5071 166.093 65.3852C166.312 65.2633 166.593 65.2039 166.929 65.2039C167.266 65.2039 167.614 65.2574 167.945 65.3614L167.781 66.2235C167.588 66.1759 167.403 66.1521 167.222 66.1521C167.041 66.1521 166.921 66.1937 166.845 66.277C166.769 66.3602 166.731 66.5207 166.731 66.7585V67.0885H167.638V68.0575H166.731V71.7495H165.516V68.0575H164.843V67.0885V67.0855Z" fill="#009247"/><path d="M170.979 70.2633L172.19 70.4684C172.035 70.9202 171.789 71.2621 171.453 71.4969C171.116 71.7317 170.698 71.8506 170.195 71.8506C169.396 71.8506 168.805 71.5861 168.422 71.057C168.12 70.6319 167.968 70.0968 167.968 69.4488C167.968 68.6759 168.167 68.0695 168.565 67.6325C168.963 67.1956 169.466 66.9756 170.072 66.9756C170.754 66.9756 171.292 67.2045 171.687 67.6623C172.082 68.12 172.269 68.8216 172.252 69.7668H169.209C169.217 70.1325 169.314 70.4178 169.501 70.62C169.689 70.8221 169.923 70.9262 170.201 70.9262C170.391 70.9262 170.552 70.8727 170.68 70.7686C170.809 70.6646 170.909 70.4951 170.973 70.2603L170.979 70.2633ZM171.049 69.0148C171.04 68.6581 170.95 68.3876 170.777 68.2003C170.604 68.013 170.394 67.9209 170.145 67.9209C169.879 67.9209 169.662 68.019 169.487 68.2152C169.314 68.4113 169.229 68.6789 169.232 69.0148H171.046H171.049Z" fill="#009247"/><path d="M83.9121 12.8795C75.1814 7.12155 63.9375 3.81602 51.7544 4.16382C24.7521 4.93669 3.35266 23.3757 3.96123 45.352C4.09875 50.3609 5.37148 55.1289 7.56876 59.4837C2.96353 53.7942 0.213262 47.0226 0.0113806 39.6982C-0.573783 18.5422 20.3312 0.775064 46.7103 0.0229988C61.5267 -0.402082 74.9181 4.63349 83.9121 12.8795Z" fill="#BCA230"/><path d="M88.1311 54.8772C81.5334 68.2093 65.9885 77.1687 48.299 76.3423C47.67 76.3126 47.0468 76.2709 46.4265 76.2174C64.707 76.4225 80.6556 67.7664 88.1311 54.8802V54.8772Z" fill="#BCA230"/><path d="M70.4362 32.6182L69.26 31.4143H69.2629L70.4362 32.6182Z" fill="#009247"/><path d="M66.1202 40.3617C64.7978 41.5745 63.4636 42.8914 62.1323 44.3212C59.2855 47.377 56.4504 50.9531 53.7557 55.1206C49.9317 61.0302 46.3856 68.1406 43.4832 76.6838C38.1055 76.3152 32.9795 75.2391 28.2543 73.5685C28.0115 73.4823 27.7716 73.3961 27.5346 73.307C27.125 73.1554 26.7183 73.0008 26.3145 72.8403C25.074 72.3498 23.8627 71.8117 22.6894 71.238C19.2311 69.5496 16.0595 67.5104 13.2595 65.2007C15.4041 62.7305 26.7329 50.1861 42.8951 40.0555C45.6395 38.3404 48.5185 36.6876 51.5204 35.1686C52.2606 34.797 53.0067 34.4344 53.7587 34.0717C56.4709 32.7876 59.2738 31.6164 62.1558 30.5997C62.1675 30.5997 62.1762 30.5938 62.1909 30.5908C62.3167 30.9297 62.7409 32.095 63.3875 33.7507C63.6245 34.3601 63.8937 35.0378 64.1892 35.7691C64.751 37.1513 65.4034 38.7179 66.1232 40.3617H66.1202Z" fill="#231F20"/><path d="M69.2629 31.4143L70.4362 32.6182L69.26 31.4143H69.2629Z" fill="#231F20"/><path d="M39.5013 50.5341C39.5013 50.5341 49.376 42.1217 50.6399 41.438L52.9981 42.8084L42.3803 52.5674L39.5013 50.5341Z" fill="white"/><path d="M39.1383 56.3722L28.2572 73.5716C26.332 72.8939 24.4711 72.1121 22.6864 71.2382L36.3968 54.6184L39.1383 56.3722Z" fill="white"/><path d="M64.1866 35.7694L62.1415 37.0416L55.7749 41.0041L53.7561 39.4673L62.1473 34.4882L63.385 33.751C63.622 34.3604 63.8911 35.0381 64.1866 35.7694Z" fill="white"/><path d="M89.559 26.878C89.559 26.878 87.1774 27.3595 83.4207 28.9766C81.0917 29.9784 78.2244 31.4141 75.0704 33.4385C74.219 33.9884 73.3412 34.5799 72.4489 35.2191C72.2323 34.7405 72.0129 34.253 71.7906 33.7655C71.5711 33.275 71.3517 32.7845 71.1352 32.3029C70.9304 31.8422 70.7285 31.3933 70.5295 30.9504C70.5266 30.9504 70.5295 30.9504 70.5295 30.9504C70.1199 30.0349 69.7366 29.1758 69.4119 28.4415C71.2785 27.9897 73.1628 27.6092 75.0704 27.3238C77.8236 26.8988 80.6236 26.658 83.4499 26.6223C85.4687 26.5985 87.508 26.6758 89.559 26.8809V26.878Z" fill="#231F20"/><path d="M77.8529 29.274L75.0704 30.5314L71.1352 32.3031C70.9304 31.8423 70.7285 31.3935 70.5295 30.9506L75.0704 29.2978L77.0132 28.5903L77.8529 29.274Z" fill="white"/><path d="M46.933 27.9544C49.6784 27.9544 51.904 25.6932 51.904 22.9039C51.904 20.1147 49.6784 17.8535 46.933 17.8535C44.1876 17.8535 41.962 20.1147 41.962 22.9039C41.962 25.6932 44.1876 27.9544 46.933 27.9544Z" fill="#ED1C24"/><path d="M46.933 42.1634C49.6784 42.1634 51.904 39.9022 51.904 37.1129C51.904 34.3237 49.6784 32.0625 46.933 32.0625C44.1876 32.0625 41.962 34.3237 41.962 37.1129C41.962 39.9022 44.1876 42.1634 46.933 42.1634Z" fill="#F7941D"/><path d="M46.933 56.3723C49.6784 56.3723 51.904 54.1112 51.904 51.3219C51.904 48.5326 49.6784 46.2715 46.933 46.2715C44.1876 46.2715 41.962 48.5326 41.962 51.3219C41.962 54.1112 44.1876 56.3723 46.933 56.3723Z" fill="#009247"/><path d="M46.8717 27.5886C49.6252 27.5886 51.8573 25.3208 51.8573 22.5233C51.8573 19.7258 49.6252 17.458 46.8717 17.458C44.1182 17.458 41.8861 19.7258 41.8861 22.5233C41.8861 25.3208 44.1182 27.5886 46.8717 27.5886Z" fill="#ED1C24"/><path d="M46.8717 41.8423C49.6252 41.8423 51.8573 39.5744 51.8573 36.777C51.8573 33.9795 49.6252 31.7117 46.8717 31.7117C44.1182 31.7117 41.8861 33.9795 41.8861 36.777C41.8861 39.5744 44.1182 41.8423 46.8717 41.8423Z" fill="#F7941D"/><path d="M46.8717 56.0957C49.6252 56.0957 51.8573 53.8279 51.8573 51.0304C51.8573 48.2329 49.6252 45.9651 46.8717 45.9651C44.1182 45.9651 41.8861 48.2329 41.8861 51.0304C41.8861 53.8279 44.1182 56.0957 46.8717 56.0957Z" fill="#009247"/><path d="M103.319 28.7153H111.09V48.2036C111.09 52.5615 107.609 56.0988 103.319 56.0988V28.7153Z" fill="#009247"/><path d="M90.2206 17.4966C85.9284 17.4966 82.4496 21.031 82.4496 25.3918V41.533L68.6954 19.8568C67.882 18.5727 66.5595 17.666 65.0615 17.5204C62.2001 17.238 59.795 19.515 59.795 22.3627V56.0957C64.0872 56.0957 67.566 52.5613 67.566 48.2005V32.63L80.8638 53.6106C81.7182 54.9602 83.1109 55.9143 84.682 56.0689C87.6898 56.3662 90.2206 53.9703 90.2206 50.9769V26.4857C90.2206 25.8823 90.7004 25.3948 91.2944 25.3948H121.187C125.48 25.3948 128.958 21.8603 128.958 17.4996H90.2177L90.2206 17.4966Z" fill="#009247"/><path d="M200 56.0987C194.868 56.0987 190.245 52.9448 188.303 48.1203L181.21 30.5077C179.976 27.437 177.035 25.4335 173.77 25.4335H139.989C137.575 25.4335 135.617 27.4459 135.647 29.9013C135.67 31.7086 137.154 33.1473 138.932 33.1473H150.393C156.306 33.1473 161.253 37.9065 161.365 43.917C161.488 50.5757 156.192 56.0333 149.664 56.0333H112.322C112.322 53.8306 113.203 51.836 114.622 50.3914C116.044 48.9496 118.007 48.0549 120.175 48.0549H149.664C151.867 48.0549 153.643 46.1614 153.503 43.8903C153.406 42.3237 152.069 41.1288 150.522 41.1288H139.052C132.946 41.1288 127.858 36.1853 127.791 29.9786C127.721 23.0851 133.218 17.458 139.986 17.458H174.648C180.57 17.458 185.903 21.0965 188.148 26.6641L200 56.1017V56.0987Z" fill="#009247"/><path d="M185.637 49.3687H172.664C170.976 53.4471 167.05 56.0987 162.696 56.0987H161.365L172.974 28.0344C176.971 29.7437 178.852 34.4195 177.17 38.4801L175.967 41.3873H182.726L185.64 49.3657L185.637 49.3687Z" fill="#009247"/></g><defs><clipPath id="clip0_772_55525"><rect width="200" height="76.6839" fill="white"/></clipPath></defs></svg>